HIERARCHY
ROOT pelvis
{
	OFFSET 0.000000 0.000000 0.000000
	CHANNELS 6 Xposition Yposition Zposition Zrotation Xrotation Yrotation
	JOINT lfemur
	{
		OFFSET 11.446000 0.000000 0.000000
		CHANNELS 3 Zrotation Xrotation Yrotation
		JOINT ltibia
		{
			OFFSET 0.000000 -42.030400 0.000000
			CHANNELS 3 Zrotation Xrotation Yrotation
			JOINT lfoot
			{
				OFFSET 0.000000 -39.930200 0.000000
				CHANNELS 3 Zrotation Xrotation Yrotation
				JOINT ltoes
				{
					OFFSET 0.000000 0.000000 11.775800
					CHANNELS 3 Zrotation Xrotation Yrotation
					End Site
					{
					    OFFSET 0.000000 0.000000 5.000000
					}
				}
			}
		}
	}
	JOINT rfemur
	{
		OFFSET -11.446000 0.000000 0.000000
		CHANNELS 3 Zrotation Xrotation Yrotation
		JOINT rtibia
		{
			OFFSET 0.000000 -42.030400 0.000000
			CHANNELS 3 Zrotation Xrotation Yrotation
			JOINT rfoot
			{
				OFFSET 0.000000 -39.930200 0.000000
				CHANNELS 3 Zrotation Xrotation Yrotation
				JOINT rtoes
				{
					OFFSET 0.000000 0.000000 11.775800
					CHANNELS 3 Zrotation Xrotation Yrotation
					End Site
					{
					    OFFSET 0.000000 0.000000 5.000000
					}
				}
			}
		}
	}
	JOINT thorax
	{
		OFFSET 0.000000 11.255600 -5.000000
		CHANNELS 3 Zrotation Xrotation Yrotation
		JOINT head
		{
			OFFSET 0.000000 43.799300 0.000000
			CHANNELS 3 Zrotation Xrotation Yrotation
			End Site
			{
			    OFFSET 0.000000 5.000000 0.000000
			}
		}
		JOINT lclavicle
		{
			OFFSET 0.000000 39.863000 0.000000
			CHANNELS 3 Zrotation Xrotation Yrotation
			JOINT lhumerus
			{
				OFFSET 17.380600 4.958300 0.000000
				CHANNELS 3 Zrotation Xrotation Yrotation
				JOINT lradius
				{
					OFFSET 0.000000 -27.561300 0.000000
					CHANNELS 3 Zrotation Xrotation Yrotation
					JOINT lhand
					{
						OFFSET 0.000000 -26.933000 0.000000
						CHANNELS 3 Zrotation Xrotation Yrotation
						End Site
						{
						    OFFSET 0.000000 -5.000000 0.000000
						}
					}
				}
			}
		}
		JOINT rclavicle
		{
			OFFSET 0.000000 39.863000 0.000000
			CHANNELS 3 Zrotation Xrotation Yrotation
			JOINT rhumerus
			{
				OFFSET -17.380600 4.958300 0.000000
				CHANNELS 3 Zrotation Xrotation Yrotation
				JOINT rradius
				{
					OFFSET 0.000000 -27.561300 0.000000
					CHANNELS 3 Zrotation Xrotation Yrotation
					JOINT rhand
					{
						OFFSET 0.000000 -26.933000 0.000000
						CHANNELS 3 Zrotation Xrotation Yrotation
						End Site
						{
						    OFFSET 0.000000 -5.000000 0.000000
						}
					}
				}
			}
		}
	}
}
MOTION
Frames:	16
Frame Time:	0.0333333
-205.9 88.5018 -89.2063 0.38665 0.182473 86.2882 -2.33703 -0.872362 1.28875 1.46227 11.1475 20.1761 3.78565 2.2229 0.0189466 -1.19307e-016 -5 3.1927e-015 -0.638622 0.48642 -2.17727 -1.1591 11.9188 -10.0919 -0.505446 1.48342 -0.136644 2.48481e-016 -5 -0 -4.34797 -4.91826 -1.42085 3.63763 14.0597 -5.89787 -5.10358e-032 3.67752e-015 7.95139e-016 12.0621 -8.4287 62.4671 3.93603 -0.00332296 -115.172 9.26804 -9.79767 -8.71123 -5.10358e-032 3.67752e-015 7.95139e-016 -10.2706 -5.55858 -25.0304 14.7429 -0.122364 70.9103 -0.712549 -0.933761 9.86777 
-205.92 88.5015 -89.2081 0.362954 0.194047 86.302 -2.35418 -0.874911 1.26602 1.47474 11.0628 20.1639 3.73361 2.28869 0.0165342 3.57812e-015 -5 -0 -0.647366 0.383234 -2.17508 -1.16435 12.0462 -10.0941 -0.609615 1.41287 -0.140367 -9.14446e-016 -5 3.1927e-015 -4.38586 -4.84507 -1.39543 3.70809 14.0368 -5.88232 7.95139e-016 2.33572e-015 -1.59028e-015 12.0697 -8.5294 62.5064 3.91503 -0.087379 -114.902 9.01381 -9.15867 -8.79322 7.95139e-016 2.33572e-015 -1.59028e-015 -10.2714 -5.61139 -24.8831 14.8213 -0.109049 70.8133 -0.704993 -0.858577 9.8681 
-205.954 88.5022 -89.2057 0.316821 0.17855 86.2881 -2.34086 -0.952907 1.2571 1.47516 11.0749 20.199 3.80987 2.27267 0.016148 7.95139e-016 -5 -0 -0.649898 0.33634 -2.18773 -1.12901 11.9985 -10.0558 -0.548036 1.47809 -0.141137 -1.63997e-015 -5 -0 -4.35227 -4.66353 -1.34135 3.81129 13.7904 -5.80939 -7.95139e-016 8.00108e-015 1.59028e-015 12.1409 -8.75388 62.7499 4.03591 -0.00326617 -114.713 8.81802 -8.49633 -8.86959 -7.95139e-016 8.00108e-015 1.59028e-015 -10.3098 -5.80734 -24.8437 14.8737 -0.00301229 70.6599 -0.928193 -0.934965 9.88143 
-205.969 88.5069 -89.2009 0.253979 0.140569 86.2605 -2.28985 -1.01113 1.27739 1.46622 11.0595 20.2032 3.82832 2.26507 0.015798 -2.1468e-015 -5 -6.38541e-015 -0.624152 0.325954 -2.18174 -1.0913 11.8686 -10.0359 -0.533024 1.57283 -0.141726 -1.64984e-015 -5 -6.38541e-015 -4.26161 -4.66644 -1.273 3.85048 13.6173 -5.57625 7.95139e-016 1.59028e-015 7.95139e-016 11.9998 -8.80413 62.6437 3.8952 -0.117143 -114.058 8.22909 -7.51898 -9.00899 7.95139e-016 1.59028e-015 7.95139e-016 -10.3597 -5.762 -24.7131 14.9376 -0.109377 70.5352 -0.974518 -1.02792 9.85126 
-205.968 88.5179 -89.2025 0.255029 0.147901 86.2942 -2.29935 -1.0611 1.2809 1.47338 11.1691 20.1648 3.77196 2.27871 0.0154795 3.85639e-015 -5 3.1927e-015 -0.638178 0.386413 -2.19203 -1.07203 11.7421 -10.1042 -0.578257 1.62908 -0.142185 -1.16293e-015 -5 3.1927e-015 -4.28435 -4.56749 -1.25804 3.83568 13.565 -5.62058 -0 -3.18055e-015 -0 12.0447 -8.89139 62.6736 3.89185 -0.0428437 -113.792 7.92435 -7.21344 -9.06533 -0 -3.18055e-015 -0 -10.4342 -5.86406 -24.7107 14.9782 -0.0317984 70.3342 -0.943362 -0.970441 9.86403 
-205.966 88.5178 -89.2009 0.266771 0.132565 86.2668 -2.28812 -1.0499 1.29459 1.47292 11.1779 20.1783 3.82143 2.24916 0.0151872 4.095e-015 -5 -3.1927e-015 -0.600556 0.362562 -2.14458 -1.11246 11.8157 -10.0984 -0.590308 1.60699 -0.142569 -1.59028e-015 -5 -0 -4.23944 -4.38726 -1.20682 3.82849 13.4736 -5.60402 -7.95139e-016 -4.82053e-015 7.95139e-016 12.0673 -9.08259 62.7797 3.93193 -0.0032668 -113.921 8.08641 -7.24792 -9.04556 -7.95139e-016 -4.82053e-015 7.95139e-016 -10.5105 -6.0037 -24.8289 14.9944 -0.0422192 70.4858 -0.912885 -0.975768 9.86088 
-205.965 88.5174 -89.2004 0.273508 0.122712 86.2876 -2.26468 -0.961511 1.30142 1.45566 11.0034 20.1326 3.83762 2.29939 0.0149177 2.26611e-015 -5 3.1927e-015 -0.572533 0.357562 -2.12164 -1.14681 11.8555 -10.1367 -0.526543 1.61219 -0.142941 -1.01384e-015 -5 3.1927e-015 -4.24538 -4.31896 -1.19675 3.83041 13.4964 -5.64031 -7.95139e-016 -1.98785e-016 -7.95139e-016 12.0876 -9.08955 62.7688 3.91283 -0.0714349 -113.943 8.12684 -7.31415 -9.03552 -7.95139e-016 -1.98785e-016 -7.95139e-016 -10.5168 -6.04534 -24.7246 15.0599 -0.0709135 70.2474 -0.918751 -0.938933 9.85416 
-205.965 88.5168 -89.2001 0.269133 0.11306 86.3216 -2.24687 -1.08308 1.32484 1.46006 11.261 20.0945 3.75339 2.22404 0.0146643 -0 -5 -0 -0.56479 0.472004 -2.11604 -1.12168 11.6281 -10.1778 -0.532778 1.68555 -0.143362 -3.34956e-015 -5 3.1927e-015 -4.28812 -4.18835 -1.20768 3.87538 13.4604 -5.77934 -3.44836e-033 -2.48481e-016 -7.95139e-016 12.0953 -9.18558 62.7705 3.85016 -0.103689 -113.859 8.02494 -7.24597 -9.05097 -3.44836e-033 -2.48481e-016 -7.95139e-016 -10.5723 -6.18562 -24.9436 15.0703 -0.0988275 70.4154 -0.922575 -0.980229 9.84794 
-205.967 88.5157 -89.1978 0.238038 0.0952154 86.3279 -2.2356 -1.05616 1.30894 1.47051 11.1073 20.093 3.74829 2.27806 0.0144249 1.82889e-015 -5 -6.38541e-015 -0.561719 0.373597 -2.13725 -1.09152 11.7436 -10.1889 -0.562906 1.65583 -0.143875 -2.03754e-015 -5 -0 -4.29825 -3.99518 -1.21391 4.09648 13.4225 -5.96586 7.95139e-016 -8.44835e-016 1.59028e-015 12.2815 -9.4072 63.0196 3.86671 -0.0159446 -114.091 8.04155 -7.31024 -9.04604 7.95139e-016 -8.44835e-016 1.59028e-015 -10.5774 -6.4036 -25.0143 15.1031 -0.102402 70.2602 -0.928642 -0.971988 9.84688 
-205.967 88.5146 -89.1982 0.230001 0.0928096 86.3585 -2.22578 -1.09622 1.30345 1.46479 11.1671 20.0329 3.78823 2.24291 0.0141926 -1.55063e-015 -5 9.57811e-015 -0.558736 0.340537 -2.14254 -1.0896 11.8087 -10.2219 -0.573253 1.62637 -0.144545 9.54094e-016 -5 6.38541e-015 -4.32519 -4.05035 -1.2278 4.06584 13.5374 -6.04024 -7.95139e-016 -2.78299e-015 -0 12.2817 -9.28019 62.9602 3.82872 -0.107404 -114.014 7.80328 -7.41867 -9.06361 -7.95139e-016 -2.78299e-015 -0 -10.5386 -6.32988 -25.0563 15.0936 -0.00331558 70.1613 -0.997474 -0.998345 9.86936 
-205.963 88.5136 -89.1988 0.261019 0.0922562 86.3211 -2.22154 -1.05184 1.33359 1.44728 11.145 20.0572 3.82617 2.23316 0.0139639 -1.35166e-015 -5 -6.38541e-015 -0.558724 0.35871 -2.14103 -1.09788 11.832 -10.1753 -0.659866 1.58753 -0.145567 3.18092e-016 -5 -3.1927e-015 -4.34482 -3.94149 -1.21593 4.05788 13.5677 -6.03557 7.95139e-016 -3.47873e-016 -0 12.3599 -9.3647 63.0771 3.86185 -0.0502562 -114.056 7.67855 -7.42808 -9.07774 7.95139e-016 -3.47873e-016 -0 -10.5113 -6.31926 -25.0459 15.1218 -0.0937168 70.0436 -0.923161 -0.972982 9.85263 
-205.961 88.5126 -89.1995 0.308218 0.0951253 86.3362 -2.23078 -0.96818 1.33767 1.4442 11.0648 20.069 3.87782 2.2462 0.0137341 1.31201e-015 -5 -3.1927e-015 -0.557688 0.424144 -2.13953 -1.11532 11.7933 -10.1842 -0.551238 1.62769 -0.146945 -1.76915e-015 -5 -3.1927e-015 -4.47255 -3.91767 -1.29809 4.15858 13.8184 -6.12371 -9.51749e-032 2.28602e-015 2.38542e-015 12.4978 -9.28369 63.1 3.92173 -0.116298 -114.313 8.29389 -7.27493 -9.01896 -9.51749e-032 2.28602e-015 2.38542e-015 -10.3673 -6.28369 -25.0936 15.0998 -0.0726359 70.0213 -0.92051 -0.882274 9.85972 
-205.962 88.5116 -89.2046 0.381105 0.117978 86.3247 -2.24876 -0.960005 1.35158 1.42751 11.211 20.0487 3.83736 2.21486 0.0134979 -2.10715e-015 -5 3.1927e-015 -0.576816 0.478675 -2.14813 -1.13424 11.8367 -10.1743 -0.615547 1.57076 -0.148426 -5.16876e-016 -5 3.1927e-015 -4.56201 -3.791 -1.28443 4.25633 14.0042 -6.15397 1.17244e-032 8.44835e-016 -7.95139e-016 12.6163 -9.33098 63.274 4.19689 -0.0426054 -115.524 9.76185 -7.31217 -8.85545 1.17244e-032 8.44835e-016 -7.95139e-016 -10.332 -6.29211 -25.2024 15.0728 -0.090054 70.1012 -0.972477 -0.984897 9.85846 
-205.963 88.5106 -89.2079 0.405354 0.103477 86.3977 -2.22057 -0.923538 1.38089 1.40826 11.1807 19.9745 3.89512 2.19783 0.0132513 -1.47097e-015 -5 -3.1927e-015 -0.56799 0.529879 -2.15954 -1.11927 11.8123 -10.2448 -0.639655 1.56813 -0.149783 -2.70351e-015 -5 3.1927e-015 -4.58444 -3.75434 -1.34822 4.16549 14.423 -6.13058 -1.11037e-031 -8.00108e-015 -7.95139e-016 12.6558 -9.36632 63.2793 4.18105 -0.0602935 -115.294 9.25703 -7.52864 -8.8947 -1.11037e-031 -8.00108e-015 -7.95139e-016 -10.29 -6.29015 -25.5796 14.9921 -0.117877 70.3334 -1.08266 -1.09521 9.8544 
-205.969 88.5095 -89.2296 0.373651 0.119233 86.3705 -2.2506 -1.03119 1.36851 1.41707 11.3561 19.9979 3.7974 2.16688 0.0129893 3.06125e-015 -5 3.1927e-015 -0.603072 0.471222 -2.1556 -1.11941 11.831 -10.2477 -0.699418 1.54152 -0.150771 -3.18092e-016 -5 3.1927e-015 -4.50086 -3.89055 -1.32894 3.97501 15.217 -6.00515 7.95139e-016 -4.37326e-015 7.95139e-016 12.4875 -9.26103 63.2798 4.1585 -0.05529 -114.796 8.32773 -7.81339 -8.97708 7.95139e-016 -4.37326e-015 7.95139e-016 -10.4336 -6.20636 -25.444 15.0131 -0.0160304 70.1835 -1.08384 -1.13615 9.87653 
-206.008 88.5082 -89.248 0.365853 0.062672 86.4142 -2.19383 -1.09334 1.39883 1.41171 11.3805 19.9207 3.77369 2.16454 0.0127076 1.19271e-015 -5 -0 -0.562796 0.478479 -2.14202 -1.09148 11.7652 -10.2606 -0.660479 1.6188 -0.151159 -1.37158e-015 -5 -3.1927e-015 -4.28307 -3.81928 -1.33088 3.37917 15.9029 -5.45651 -0 -3.47873e-016 -0 12.2206 -9.34444 63.1961 4.18359 -0.0997334 -114.852 8.45511 -7.43707 -8.98966 -0 -3.47873e-016 -0 -10.6185 -6.26005 -25.1513 15.0853 -0.150547 69.8996 -0.994622 -0.981588 9.84859 
